<svg xmlns="http://www.w3.org/2000/svg" viewBox="0 0 118.49 119.19"><defs><style>.cls-1{fill:#dfe2e5;}.cls-1,.cls-4,.cls-5,.cls-7{stroke:#0e0e0e;stroke-linecap:round;stroke-linejoin:round;stroke-width:2px;}.cls-2{fill:#444;opacity:0.1;}.cls-3,.cls-7{fill:#fff;}.cls-4{fill:none;}.cls-5{fill:#a4b0be;}.cls-6{fill:#0e0e0e;}</style></defs><title>doggo4</title><g id="Layer_2" data-name="Layer 2"><g id="Layer_1-2" data-name="Layer 1"><path class="cls-1" d="M24.54,89.58a10.59,10.59,0,0,0-5.91,16,16.42,16.42,0,0,0-3.25,8.59,4.14,4.14,0,0,0,.88,3.37c1.29,1.22,3.39.62,5-.19A29.9,29.9,0,0,0,36.37,98.05c1-4,.88-8.84-2.13-11.71"/><path class="cls-1" d="M117.49,69.32a5.74,5.74,0,0,1-.92,2.92A10.41,10.41,0,0,1,111.2,77c-4.1,1.43-11.36-3.41-6.89-7.38,1.51-1.35,4.18-1.5,6-1.9C112.62,67.27,117.39,65.37,117.49,69.32Z"/><circle class="cls-1" cx="58.03" cy="62.58" r="51.83"/><path class="cls-1" d="M70.43,12.25l1.28.33Z"/><path class="cls-1" d="M65.61,11.3l1.16.19Z"/><path class="cls-1" d="M68.05,11.72l1.22.26Z"/><path class="cls-1" d="M63.12,11c.36,0,.71.08,1.07.12C63.83,11.08,63.48,11,63.12,11Z"/><path class="cls-1" d="M60.6,10.81l.88.06Z"/><path class="cls-1" d="M75,13.61c.46.16.93.33,1.39.51C76,13.94,75.49,13.77,75,13.61Z"/><path class="cls-1" d="M79.28,15.3l1.63.76Z"/><path class="cls-1" d="M72.76,12.88c.45.13.89.27,1.33.42C73.65,13.15,73.21,13,72.76,12.88Z"/><path class="cls-1" d="M81.16,16.19a52.25,52.25,0,0,1,11.2,7.57A52.25,52.25,0,0,0,81.16,16.19Z"/><path class="cls-1" d="M77.21,14.42,78.7,15Z"/><path class="cls-2" d="M92.36,23.76A51.82,51.82,0,0,1,16.74,93.9c-.32-.42-.63-.85-.93-1.28A51.82,51.82,0,1,0,92.36,23.76Z"/><path class="cls-1" d="M6.53,68.39c0-.31-.07-.61-.09-.91C6.46,67.78,6.5,68.08,6.53,68.39Z"/><path class="cls-1" d="M13,88.3c-.25-.43-.5-.86-.73-1.3C12.54,87.44,12.79,87.87,13,88.3Z"/><path class="cls-1" d="M12.18,86.76c-.48-.91-.92-1.83-1.35-2.77C11.26,84.93,11.71,85.85,12.18,86.76Z"/><path class="cls-1" d="M15.42,92.08c-.28-.41-.56-.82-.83-1.24C14.86,91.26,15.14,91.67,15.42,92.08Z"/><path class="cls-1" d="M14.18,90.2c-.26-.41-.52-.82-.76-1.24C13.66,89.38,13.92,89.79,14.18,90.2Z"/><path class="cls-1" d="M10.44,83.12c-.17-.38-.32-.77-.48-1.15C10.12,82.35,10.27,82.74,10.44,83.12Z"/><path class="cls-1" d="M8.77,78.7c-.12-.35-.23-.7-.34-1C8.54,78,8.65,78.35,8.77,78.7Z"/><path class="cls-1" d="M7.29,73.19c-.06-.27-.1-.53-.15-.8C7.19,72.66,7.23,72.92,7.29,73.19Z"/><path class="cls-1" d="M6.86,70.82c-.05-.3-.09-.61-.14-.91C6.77,70.21,6.81,70.52,6.86,70.82Z"/><path class="cls-1" d="M6.31,65.83c0-.27,0-.53,0-.79C6.27,65.3,6.29,65.56,6.31,65.83Z"/><path class="cls-1" d="M9.56,81c-.14-.37-.28-.74-.41-1.11C9.28,80.21,9.42,80.58,9.56,81Z"/><path class="cls-1" d="M8,76.26c-.08-.29-.17-.57-.24-.85C7.87,75.69,8,76,8,76.26Z"/><path class="cls-3" d="M26.14,69.37c.57,6.61,1.2,13.42,4.33,19.26,4.69,8.77,14.87,14.05,24.8,13.61a19.33,19.33,0,0,0,10.15-3,17.65,17.65,0,0,0,6.89-11.08,30.56,30.56,0,0,0-.61-13.24,22.83,22.83,0,0,0-4.63-9.93,20.52,20.52,0,0,0-9.88-5.82c-10.43-3-22.67-.21-29.83,8"/><path class="cls-1" d="M88.85,37.42A26.5,26.5,0,0,0,85.34,31a19.87,19.87,0,0,1-2.26-2.81,18.68,18.68,0,0,1-.58-3A26.54,26.54,0,0,0,60.2,5.4a17,17,0,0,0-7.27.45A11,11,0,0,0,50.42,7a5.93,5.93,0,0,1-6.26,0,11,11,0,0,0-2.51-1.16,17,17,0,0,0-7.27-.45A26.51,26.51,0,0,0,12.09,25.18a19.88,19.88,0,0,1-.59,3A19.8,19.8,0,0,1,9.25,31a26.54,26.54,0,0,0-3.52,6.47,18.65,18.65,0,0,0-1.14,8.17c.62,6.46,5.24,12.2,11.14,14.92s12.87,2.62,19,.51c4.89-1.68,9.55-4.82,11.67-9.53a15,15,0,0,0,.87-2.55,16,16,0,0,0,.87,2.55C50.28,56.2,55,59.34,59.84,61c6.14,2.11,12.91,2.3,18.81-.42"/><path class="cls-1" d="M58,9.62,65.7,3.07a7.93,7.93,0,0,1,3.23-2A5.48,5.48,0,0,1,73,2a20.87,20.87,0,0,1,3.24,2.85,46.26,46.26,0,0,0,9.35,7.05A14.75,14.75,0,0,1,90,15.05a9.73,9.73,0,0,1,1.82,4.38,21.13,21.13,0,0,1,.09,7.44,6.23,6.23,0,0,1-1.6,3.6,4.64,4.64,0,0,1-4.29.88,10.1,10.1,0,0,1-3.93-2.27,25.44,25.44,0,0,1-8.57-15.51"/><path class="cls-1" d="M36.55,9.62,28.88,3.07a7.93,7.93,0,0,0-3.23-2,5.49,5.49,0,0,0-4.1.93,21.34,21.34,0,0,0-3.24,2.85A46.48,46.48,0,0,1,9,11.93a14.66,14.66,0,0,0-4.35,3.12A9.85,9.85,0,0,0,2.8,19.43a20.9,20.9,0,0,0-.08,7.44,6.16,6.16,0,0,0,1.59,3.6,4.66,4.66,0,0,0,4.3.88,10.14,10.14,0,0,0,3.92-2.27A25.44,25.44,0,0,0,21.1,13.57"/><path class="cls-4" d="M58,26.08c-2.55-.48-3.35-1.38-4.08-2.74a3.65,3.65,0,0,1,.69-4.25"/><path class="cls-4" d="M36.55,26.08c2.55-.48,3.35-1.38,4.08-2.74a3.63,3.63,0,0,0-.69-4.25"/><path class="cls-5" d="M41.52,24.83A17.94,17.94,0,0,0,24.83,39.18,29,29,0,0,1,22.57,46L19.19,52.9c-2.06,4-3.85,8.18-4.21,12.64-.43,5.34,1.47,11.13,6.37,13.85A9.51,9.51,0,0,0,29,80.2c4.89-1.67,6.42-6.77,6.46-11.4,0-3.74-.69-7.48-.35-11.21s2.07-7.66,5.49-9.18c1.33-.59,2.83-.78,4.12-1.46a3.44,3.44,0,0,0,2-3.06l.61,0,.61,0a3.44,3.44,0,0,0,2,3.06c1.29.68,2.79.87,4.13,1.46,3.41,1.52,5.14,5.46,5.48,9.18s-.39,7.47-.35,11.21c0,4.63,1.57,9.73,6.46,11.4a9.51,9.51,0,0,0,7.62-.81c4.91-2.72,6.8-8.51,6.37-13.85-.36-4.46-2.15-8.67-4.21-12.64L72,46a29,29,0,0,1-2.26-6.85A18,18,0,0,0,51.92,24.8Z"/><path class="cls-2" d="M29,70.7a9.51,9.51,0,0,1-7.62-.81,12.43,12.43,0,0,1-5.82-7.77A23,23,0,0,0,15,65.54c-.43,5.34,1.47,11.13,6.37,13.85A9.51,9.51,0,0,0,29,80.2c4.89-1.67,6.42-6.77,6.46-11.4,0-2-.18-4.08-.32-6.12C34.45,66.2,32.68,69.44,29,70.7Z"/><path class="cls-2" d="M79.05,62.12a12.39,12.39,0,0,1-5.82,7.77,9.51,9.51,0,0,1-7.62.81c-3.71-1.26-5.48-4.5-6.14-8-.14,2-.34,4.08-.32,6.12,0,4.63,1.57,9.73,6.46,11.4a9.51,9.51,0,0,0,7.62-.81c4.91-2.72,6.8-8.51,6.37-13.85A21.76,21.76,0,0,0,79.05,62.12Z"/><path class="cls-6" d="M52,30.2H42.91a4.13,4.13,0,0,0-3.41,1.72,3,3,0,0,0,2.28,4.92h0a3,3,0,0,1,3,2.58l.39,2.69h3.62l.38-2.69a3,3,0,0,1,3-2.58h.67a2.93,2.93,0,0,0,2.95-2.68A3.7,3.7,0,0,0,52,30.2Z"/><path class="cls-7" d="M58.89,37.09a1.09,1.09,0,0,1,.77-.53c.5,0,.8.54.94,1a8.61,8.61,0,0,1,.24,3.64.68.68,0,0,1-.18.45.75.75,0,0,1-.57.09c-.91-.11-3.18.12-3-1.28A6.61,6.61,0,0,1,58,38.84,14.38,14.38,0,0,1,58.89,37.09Z"/><path class="cls-7" d="M35.69,37.09a1.08,1.08,0,0,0-.76-.53c-.5,0-.81.54-1,1a8.61,8.61,0,0,0-.24,3.64.68.68,0,0,0,.18.45.77.77,0,0,0,.58.09c.9-.11,3.17.12,2.94-1.28a6.61,6.61,0,0,0-.86-1.64A14.38,14.38,0,0,0,35.69,37.09Z"/><path class="cls-5" d="M33.65,41.07H60.94a0,0,0,0,1,0,0V61A13.64,13.64,0,0,1,47.29,74.65h0A13.64,13.64,0,0,1,33.65,61V41.07A0,0,0,0,1,33.65,41.07Z"/><path class="cls-2" d="M47.29,67A13.64,13.64,0,0,1,33.65,53.36V61a13.65,13.65,0,1,0,27.29,0V53.36A13.65,13.65,0,0,1,47.29,67Z"/><line class="cls-4" x1="37.72" y1="45.63" x2="56.86" y2="45.63"/><path class="cls-3" d="M59.7,22.93a15.71,15.71,0,0,0,10.18,0,5.46,5.46,0,0,0,1.82-1,1.78,1.78,0,0,0,.69-1.64A2.07,2.07,0,0,0,71,19a7.69,7.69,0,0,0-2.16-.36c-2.65-.17-7-.8-9.52.06C56.6,19.63,57.4,22.11,59.7,22.93Z"/><path class="cls-3" d="M34.88,22.93a15.71,15.71,0,0,1-10.18,0,5.66,5.66,0,0,1-1.82-1,1.78,1.78,0,0,1-.69-1.64A2.07,2.07,0,0,1,23.58,19a7.56,7.56,0,0,1,2.15-.36c2.65-.17,7-.8,9.52.06C38,19.63,37.18,22.11,34.88,22.93Z"/><circle class="cls-6" cx="20.17" cy="28.86" r="2.24"/><circle class="cls-6" cx="74.42" cy="28.86" r="2.24"/><path class="cls-1" d="M86.72,85.8a10.57,10.57,0,0,0-5.9,15.94,16.41,16.41,0,0,0-3.26,8.6,4.15,4.15,0,0,0,.88,3.37c1.29,1.22,3.39.62,5-.19A29.9,29.9,0,0,0,98.55,94.27c1-4,.88-8.84-2.13-11.71"/><path class="cls-1" d="M9.74,61.54A7.56,7.56,0,0,0,3,64.92,12.42,12.42,0,0,0,1,72.48a18.55,18.55,0,0,0,2.07,7.89c.86,1.65,2.46,3.37,4.26,2.91a4.17,4.17,0,0,0,2.48-2.79,16.26,16.26,0,0,0-.08-11.77"/><path class="cls-1" d="M91.64,55.66A7.6,7.6,0,0,0,84.86,59a12.45,12.45,0,0,0-2,7.57A18.6,18.6,0,0,0,85,74.5c.85,1.65,2.45,3.37,4.25,2.9a4.15,4.15,0,0,0,2.48-2.78,16.25,16.25,0,0,0,.16-11.15"/></g></g></svg>