<svg xmlns="http://www.w3.org/2000/svg" viewBox="0 0 121.05 125.94"><defs><style>.cls-1{isolation:isolate;}.cls-2,.cls-4{fill:#fabe63;}.cls-2,.cls-3,.cls-7,.cls-8{stroke:#0e0e0e;stroke-linecap:round;stroke-linejoin:round;stroke-width:2px;}.cls-3{fill:#fdcb6e;}.cls-4{opacity:0.3;mix-blend-mode:multiply;}.cls-5{fill:#fff;}.cls-6{fill:#0e0e0e;}.cls-7{fill:#ff7675;}.cls-8{fill:none;}</style></defs><title>doggo1</title><g class="cls-1"><g id="Layer_2" data-name="Layer 2"><g id="Layer_1-2" data-name="Layer 1"><path class="cls-2" d="M114.12,95.29a4.57,4.57,0,0,1,2.38.39,2.8,2.8,0,0,1,1.31,2.51,4.11,4.11,0,0,1-1.21,2.64c-1.92,2-5.09,2.23-7.76,1.49a7.7,7.7,0,0,1-4.3-2.71,4.24,4.24,0,0,1-.19-4.84,4.57,4.57,0,0,1,2.8-1.59C110.58,92.53,110.91,95.34,114.12,95.29Z"/><path class="cls-3" d="M16.53,79.58A11.5,11.5,0,0,0,10.87,90.9a4.46,4.46,0,0,1,0,2c-.41,1.25-2,1.7-3.27,1.65S5,94.11,3.71,94.49C1.48,95.16.53,98,1.22,100.27s2.54,3.9,4.41,5.31a46.43,46.43,0,0,0,9.86,5.66c2.81,1.18,5.85,2.1,8.86,1.68s6-2.48,6.62-5.45"/><path class="cls-3" d="M118.59,75.55c.21-1.11-.34-2.33-.2-3.46s-.07-2.24,0-3.38,1.66-2.2,1.66-3.35-1.11-2.25-1.18-3.38,1-2.39.91-3.52-.94-2.18-1.15-3.29-.5-2.23-.78-3.33.15-2.45-.19-3.53-2-1.69-2.47-2.75-.22-2.37-.7-3.4-.63-2.26-1.18-3.26-1.53-1.76-2.14-2.72-1.33-1.86-2-2.78-1.1-2-1.82-2.93-2.33-1-3.1-1.8-1.66-1.49-2.49-2.26S100.88,24,100,23.27,98,22.19,97,21.52a15.83,15.83,0,0,0-2.18-1.19c.63-6.52-.43-17.59-3.71-19.16-3-1.42-10.57,6.5-14.83,11.34-.34,0-.69-.06-1-.12-1.11-.22-2.15-.85-3.29-1s-2.21-1.08-3.35-1.15S66.33,12,65.18,12s-2.24-.18-3.36-.12-2.29-.27-3.41-.13-2.32-.08-3.43.13a6,6,0,0,0-1.16.37C49.53,7.4,42.14-.23,39.22,1.17S35,12.44,35.4,19c-.85.58-1.64,1.32-2.47,1.93s-1.71,1.56-2.58,2.28-1,2.25-1.87,3S27,28,26.22,28.78s-2.13,1.11-2.85,2-1.09,2-1.75,2.94-1.75,1.55-2.36,2.51-.32,2.42-.87,3.42-1.05,2-1.53,3-1,2-1.45,3-1.34,1.9-1.69,3-1.07,2-1.35,3.16,0,2.32-.22,3.44.3,2.31.16,3.44S11.07,60.81,11,62s-.3,2.27-.3,3.41-.49,2.33-.42,3.46,1.17,2.19,1.31,3.31.69,2.18.9,3.29-1.1,2.59-.82,3.68,1.37,2,1.71,3.09.08,2.43.5,3.48,2.27,1.51,2.75,2.54,1,2,1.54,3,1,2,1.63,3,.3,2.55,1,3.47,2.53.91,3.25,1.78.87,2.23,1.65,3.06,2,1.22,2.79,2,.88,2.43,1.76,3.15,2.21.89,3.13,1.56,1.6,1.7,2.56,2.31,1.87,1.36,2.86,1.91,1.95,1.27,3,1.75,2.65-.4,3.71,0,2,.89,3.13,1.24,2.2.41,3.3.7,1.91,1.79,3,2,2.23.66,3.36.8,2.34-.44,3.48-.37,2.27-.66,3.41-.66,2.33,1.38,3.45,1.31,2.36.12,3.48,0,2-1.93,3.12-2.14,2.4.35,3.5.06,2.17-.7,3.25-1,2.07-1,3.12-1.38,2.18-.67,3.21-1.16,2.11-.89,3.1-1.44,1.63-1.69,2.59-2.3,2.71-.08,3.63-.75.64-2.88,1.51-3.61,1.87-1.24,2.69-2,1.91-1.26,2.69-2.09,1.35-1.81,2.07-2.69,1.78-1.48,2.44-2.4,1.65-1.63,2.26-2.59S113,93,113.56,92s.31-2.43.79-3.46.34-2.31.76-3.37,2.15-1.64,2.5-2.73.8-2.19,1.08-3.3S118.38,76.67,118.59,75.55Z"/><path class="cls-4" d="M118.59,75.55c.21-1.11-.34-2.33-.2-3.46s-.07-2.24,0-3.38,1.66-2.2,1.66-3.35-1.11-2.25-1.18-3.38,1-2.39.91-3.52-.94-2.18-1.15-3.29-.5-2.23-.78-3.33.15-2.45-.19-3.53-2-1.69-2.47-2.75-.22-2.37-.7-3.4-.63-2.26-1.18-3.26-1.53-1.76-2.14-2.72-1.33-1.86-2-2.78-1.1-2-1.82-2.93-2.33-1-3.1-1.8-1.66-1.49-2.49-2.26S100.89,24,100,23.27a26.3,26.3,0,0,0-2.67-1.57c.58.82,1,1.79,1.59,2.61s1.38,1.81,2,2.77,1.59,1.73,2.14,2.73.7,2.23,1.18,3.26.28,2.34.7,3.4,2.11,1.66,2.47,2.75-.09,2.42.19,3.52.57,2.21.78,3.33,1,2.17,1.15,3.3-1,2.38-.91,3.52,1.18,2.23,1.18,3.38-1.59,2.22-1.66,3.35.14,2.25,0,3.37.41,2.36.2,3.47.38,2.45.1,3.55-.73,2.22-1.08,3.3S105.28,75,104.86,76s-.27,2.34-.76,3.37-.25,2.46-.79,3.45-1.66,1.71-2.27,2.67-1.59,1.68-2.26,2.6-1.71,1.52-2.44,2.4-1.29,1.86-2.07,2.68-1.86,1.31-2.69,2.09-1.81,1.29-2.69,2-.59,2.94-1.51,3.61-2.67.13-3.63.75-1.59,1.75-2.59,2.3-2.07,1-3.1,1.44-2.15.73-3.21,1.15-2,1-3.12,1.39-2.15.77-3.25,1.05-2.38-.28-3.5-.07-2,2-3.12,2.15-2.34,0-3.48,0-2.3-1.31-3.45-1.31-2.28.72-3.41.65-2.36.51-3.48.37-2.25-.59-3.36-.8-1.94-1.73-3-2-2.22-.35-3.3-.7-2.08-.81-3.13-1.23-2.68.46-3.71,0-2-1.21-3-1.76-1.9-1.3-2.86-1.91l-.14-.11a1.39,1.39,0,0,0,.15.19c.77.83,2,1.22,2.79,2s.88,2.43,1.76,3.15,2.21.89,3.13,1.56,1.6,1.7,2.56,2.31,1.87,1.36,2.86,1.91,1.95,1.27,3,1.75,2.65-.4,3.71,0,2,.89,3.13,1.24,2.2.41,3.3.7,1.91,1.79,3,2,2.23.66,3.36.8,2.34-.44,3.48-.37,2.27-.66,3.41-.66,2.33,1.38,3.45,1.31,2.36.12,3.48,0,2-1.93,3.12-2.14,2.4.35,3.5.06,2.17-.7,3.25-1,2.07-1,3.12-1.38,2.18-.67,3.21-1.16,2.11-.89,3.1-1.44,1.63-1.69,2.59-2.3,2.71-.08,3.63-.75.64-2.88,1.51-3.61,1.87-1.24,2.69-2,1.91-1.26,2.69-2.09,1.35-1.81,2.07-2.69,1.78-1.48,2.44-2.4,1.65-1.63,2.26-2.59S113,93,113.56,92s.31-2.43.79-3.46.34-2.31.76-3.37,2.15-1.64,2.5-2.73.8-2.19,1.08-3.3S118.38,76.67,118.59,75.55Z"/><path class="cls-5" d="M50.63,20.28c1.67-2.12,5-3.35,7-1.63,1.83,1.53,1.64,4.38,1.09,6.71s-1.25,4.93,0,7S63,35,65.45,34.73s4.92-1.2,7.42-1.1c4.92.21,9.14,4.8,9.23,9.73a11.39,11.39,0,0,1-8.44,10.79c-2.58.67-5.4.47-7.81,1.63-4,1.94-5.45,6.87-6,11.29-.83,6.86-.53,13.82-1.46,20.67-.55,4-1.68,8.26-4.73,11s-7.08,3.23-11,3.1c-7.19-.25-14.58-3.13-18.85-8.92C20.4,88.19,19.31,82.06,20,76.29S23,65.06,25.83,60a52.65,52.65,0,0,0,4.22-8.3,12.51,12.51,0,0,0,0-9.11c-.87-1.92-4.14-3.33-4.55-5.43s-.65-4,.43-5.85c2.42-4.09,8.3-1.36,11.55-.28,4.27,1.4,7.15.85,9.51-3.41C48.33,25.22,48.91,22.45,50.63,20.28Z"/><circle class="cls-6" cx="62.59" cy="31.39" r="1.68"/><circle class="cls-6" cx="41.33" cy="27.4" r="1.68"/><path class="cls-5" d="M67.31,28c.92,1,2.07,2.17,3.46,2.06a2.7,2.7,0,0,0,2.29-2.22,3.81,3.81,0,0,0-1-3.15A6.49,6.49,0,0,0,69.11,23a10.49,10.49,0,0,0-4.24-.42,3.82,3.82,0,0,0-1.82.57,1.73,1.73,0,0,0-.78,1.66c.2,1.07,1.34,1,2.14,1.15A5.69,5.69,0,0,1,67.31,28Z"/><path class="cls-5" d="M40.61,23.78a6.55,6.55,0,0,1,1.6-.77c.57-.16,1.17-.15,1.73-.31a1.5,1.5,0,0,0,1.18-1.16,1.32,1.32,0,0,0-.63-1.16A3.55,3.55,0,0,0,43.18,20c-2.06-.36-5.07-.27-6.18,1.9a1.75,1.75,0,0,0,.61,2.29C38.58,24.81,39.7,24.31,40.61,23.78Z"/><path class="cls-3" d="M67,87.76a17.19,17.19,0,0,0-16.36,25.75c-2.19.74-4.6.34-6.89.65S38.91,116,38.9,118.3s2.33,3.75,4.44,4.57A32,32,0,0,0,86.28,98.52"/><path class="cls-3" d="M18.3,44.32a10.33,10.33,0,0,0-11.72-.14A10.35,10.35,0,0,0,2.7,55.24a7.34,7.34,0,0,0,5,5.23,6.83,6.83,0,0,0,7.08-3.27,10.68,10.68,0,0,0,.94-8.06"/><path class="cls-3" d="M15.72,54.8s3.44-.92,4.57,0"/><path class="cls-7" d="M58.14,43.47a7,7,0,0,0,5.63,5.59,5,5,0,0,0,4.06-1,3.31,3.31,0,0,0,.9-3.89C68,42.89,66.45,42.38,65,42.1s-2.61-.15-3.66-1.19"/><path class="cls-8" d="M56.31,11.79c-1.31.4-2.54,1-3.86,1.39-3.92,1.13-8.47.12-11.9,2.31"/><path class="cls-3" d="M72.07,59.38a10.85,10.85,0,0,0-19.72,5.83,7.91,7.91,0,0,0,3.27,7.05A7.38,7.38,0,0,0,64,71.35a11.55,11.55,0,0,0,3.75-7.93"/><path class="cls-3" d="M67,68.49s3.84.23,4.69,1.55"/><path class="cls-8" d="M47.11,32,27.3,30.82a3.44,3.44,0,0,0-1.36.1c-1.17.41-1.55,1.87-1.48,3.11.22,4.48,3.89,8.08,7.84,10.21a26.15,26.15,0,0,0,16.59,2.83A23.24,23.24,0,0,0,63.3,38.54"/><path class="cls-6" d="M29.18,28.78a2,2,0,0,0-2.13,2.38,8.29,8.29,0,0,0,.31,1.08,5.56,5.56,0,0,0,2.27,3A4.92,4.92,0,0,0,35,34.71a5.88,5.88,0,0,0,1.87-2.65,2,2,0,0,0-1.64-2.59Z"/><path class="cls-6" d="M87.59,10c.36-.29,1-.54,1.2-.14a.69.69,0,0,1,.08.4l.19,7.62a.67.67,0,0,1-1,.78c-1-.33-7.15-2.48-6.68-3.73.17-.44,2.17-1.41,2.59-1.8C85.13,12.07,86.34,11,87.59,10Z"/><path class="cls-8" d="M41.93,31.64a7.32,7.32,0,0,0,5.82-5.75"/><path class="cls-8" d="M32,40.3a9.66,9.66,0,0,0,3.46,5.37"/></g></g></g></svg>