<svg xmlns="http://www.w3.org/2000/svg" viewBox="0 0 236.95 112.79"><defs><style>.cls-1,.cls-3{fill:#d07d53;}.cls-1,.cls-2,.cls-4,.cls-6,.cls-7{stroke:#0e0e0e;stroke-linecap:round;stroke-linejoin:round;stroke-width:2px;}.cls-2{fill:#fcfcfc;}.cls-4{fill:none;}.cls-5{fill:#444;opacity:0.1;}.cls-6{fill:#fff;}.cls-7{fill:#8b4a30;}.cls-8{fill:#0e0e0e;}</style></defs><title>doggo3_1</title><g id="Layer_2" data-name="Layer 2"><g id="Layer_1-2" data-name="Layer 1"><path class="cls-1" d="M206.81,27.11a9.54,9.54,0,0,1-2.49,5.13c-2.87,3.25-7.77,5.23-12,3.72-3.49-1.24-4.92-4.21-3.45-7.61C191.59,22.06,208.09,15.89,206.81,27.11Z"/><path class="cls-2" d="M222.87,57.94c-2.76-1.65-15.77-3-18.89-3.83.24-.82.44-1.66.62-2.5a32,32,0,0,1-14.41-3.71c-4.88-.43-9.71-1.78-13.11-4.29a54.7,54.7,0,0,0-7.83-4.79A114.74,114.74,0,0,0,150,34.09c-11.31-1.2-22.69-1.5-34-2-14-.59-28.11-.87-42,.51A173.63,173.63,0,0,0,50.12,39a28.44,28.44,0,0,1-15.39.69c.06.84.13,1.68.22,2.51,1,8.84,4.1,18,11.16,23.41,6.48,5,15.08,5.92,23.21,6.7,34.24,3.29,68.81,6.57,102.94,2.27,2.26-.29,4.56-.64,6.85-1.09,3.77,0,8.66-1,10.66-1.07,6.08-.3,22.17-.6,28.25-.9a19.28,19.28,0,0,0,6.15-1,6.43,6.43,0,0,0,4.09-4.4C228.94,62.67,225.86,59.73,222.87,57.94Z"/><path class="cls-2" d="M230.47,81.94c-2.76-1.65-15.78-3-18.89-3.83a46.24,46.24,0,0,0,1.4-16c-.95-14.3-6-28.81-16.44-38.64C183.07,10.79,163.28,7.88,144.8,6.91A389.3,389.3,0,0,0,74.2,9.64l-7.68,10c-8.86,3.17-16,10.39-20,18.91s-5,18.24-4,27.59c1,8.84,4.1,18,11.16,23.41,6.48,5,15.09,5.92,23.22,6.7,34.23,3.29,68.81,6.57,102.93,2.27,2.26-.29,4.57-.64,6.85-1.09,3.78,0,8.66-1,10.66-1.07,6.09-.3,22.17-.6,28.26-.9a19.32,19.32,0,0,0,6.15-1,6.45,6.45,0,0,0,4.09-4.4C236.54,86.67,233.45,83.73,230.47,81.94Z"/><path class="cls-1" d="M47,12.61,36.63,3.79a10.64,10.64,0,0,0-4.35-2.65,7.43,7.43,0,0,0-5.53,1.25A28.76,28.76,0,0,0,22.4,6.22a63,63,0,0,1-12.59,9.5c-2.1,1.2-4.33,2.33-5.86,4.2a13.07,13.07,0,0,0-2.44,5.91,28.06,28.06,0,0,0-.12,10,8.36,8.36,0,0,0,2.14,4.85,6.29,6.29,0,0,0,5.79,1.19,13.51,13.51,0,0,0,5.29-3.06A34.3,34.3,0,0,0,26.16,17.93"/><path class="cls-2" d="M117.82,61.05a25.86,25.86,0,0,0-1.48-11,35.91,35.91,0,0,0-4.54-8.71c-.84-1.21-2.33-2.45-2.92-3.78-.49-1.13-.45-2.76-.75-4a36.38,36.38,0,0,0-9.22-16.7,34.09,34.09,0,0,0-19.6-9.94,20.87,20.87,0,0,0-9.4.61,13.66,13.66,0,0,0-3.25,1.55,7.42,7.42,0,0,1-8.09,0,13.66,13.66,0,0,0-3.25-1.55,20.87,20.87,0,0,0-9.4-.61,34.12,34.12,0,0,0-19.61,9.94,36.45,36.45,0,0,0-9.21,16.7c-.3,1.23-.26,2.86-.76,4-.58,1.33-2.07,2.57-2.91,3.78a36.3,36.3,0,0,0-4.55,8.71,26,26,0,0,0-1.47,11c.8,8.71,6.77,16.43,14.4,20.1s16.64,3.53,24.59.69c6.32-2.26,12.35-6.5,15.09-12.84a20.32,20.32,0,0,0,1.12-3.44A21.29,21.29,0,0,0,63.74,69c2.74,6.34,8.77,10.58,15.09,12.84"/><path class="cls-3" d="M33.73,33.42a14.79,14.79,0,0,1-9.61,0,5.22,5.22,0,0,1-1.72-.9A1.69,1.69,0,0,1,21.75,31a2,2,0,0,1,1.31-1.25,7.19,7.19,0,0,1,2-.33c2.5-.16,6.57-.76,9,.05C36.65,30.31,35.89,32.65,33.73,33.42Z"/><path class="cls-4" d="M65.61,9.64a16.65,16.65,0,0,1-10.43,3.74"/><path class="cls-4" d="M23.22,38A3.38,3.38,0,1,0,30,38"/><path class="cls-4" d="M133.62,84.66c-3.22.24-6.54.47-9.58-.59-1.31-.46-2.54-1.14-3.89-1.47a4.25,4.25,0,0,0-3.92.72"/><path class="cls-3" d="M43.31,32.3c.74-.48,1.83-.34,2.44-1s.34-1.86.77-2.71c.58-1.13,2.16-1.25,3.09-2.11s1-2.35,1.4-3.61a7.41,7.41,0,0,1,13-2.47c2,2.58,2,6.08,2,9.31s.2,6.76,2.31,9.22c.8,1,1.94,1.85,1.9,3.1a3.78,3.78,0,0,1-1.71,2.55C66,46.72,63.31,49,60,49.37A17.51,17.51,0,0,1,54,48.72c-3.31-.75-6.68-1.53-9.59-3.28-1.75-1-6-4.3-4.89-6.77.4-.93,1.48-1.52,2-2.39C42.23,35.08,42,33.12,43.31,32.3Z"/><path class="cls-4" d="M42.91,36.36c-.79-1.39.15-3.25,1.55-4a9.21,9.21,0,0,1,4.67-.7l12,.32"/><path class="cls-4" d="M46.7,31.62c-.79-1.38.14-3.24,1.54-4a9.14,9.14,0,0,1,4.68-.7"/><path class="cls-4" d="M115.44,47.76a37.24,37.24,0,0,0-3.64-6.42c-.84-1.21-2.33-2.45-2.92-3.78-.49-1.13-.45-2.76-.75-4a36.38,36.38,0,0,0-9.22-16.7,34.09,34.09,0,0,0-19.6-9.94,20.87,20.87,0,0,0-9.4.61,13.66,13.66,0,0,0-3.25,1.55,7.42,7.42,0,0,1-8.09,0,13.66,13.66,0,0,0-3.25-1.55,20.87,20.87,0,0,0-9.4-.61,34.12,34.12,0,0,0-19.61,9.94,36.45,36.45,0,0,0-9.21,16.7c-.3,1.23-.26,2.86-.76,4-.58,1.33-2.07,2.57-2.91,3.78a36.3,36.3,0,0,0-4.55,8.71,26,26,0,0,0-1.47,11c.8,8.71,6.77,16.43,14.4,20.1s16.64,3.53,24.59.69c6.32-2.26,12.35-6.5,15.09-12.84a20.32,20.32,0,0,0,1.12-3.44A21.29,21.29,0,0,0,63.74,69c2.74,6.34,8.77,10.58,15.09,12.84"/><path class="cls-2" d="M46.58,36.6c-4.66.27-8.89-.4-12.65,2.41-4.7,3.52-8.38,11.13-9.59,16.91a39.27,39.27,0,0,1-3,9.23l-4.5,9.25c-2.74,5.35-5.13,11-5.61,17-.58,7.19,1.95,15,8.48,18.66a12.54,12.54,0,0,0,10.16,1.09c6.52-2.25,8.55-9.11,8.62-15.36,0-5-.93-10.07-.47-15.09s2.75-10.32,7.3-12.37c1.78-.8,3.78-1,5.5-2,1.52-.82,2.81-2.47,2.66-4.12l.81-.07.81.07c-.16,1.65,1.13,3.3,2.65,4.12,1.72.92,3.72,1.16,5.5,2,4.55,2.05,6.85,7.35,7.31,12.37s-.52,10-.47,15.09c.06,6.25,2.09,13.11,8.61,15.36a12.54,12.54,0,0,0,10.16-1.09c6.53-3.67,9.06-11.47,8.49-18.66-.48-6-2.87-11.67-5.62-17l-4.5-9.25a39.27,39.27,0,0,1-3-9.23A24.76,24.76,0,0,0,75,41.29a24.27,24.27,0,0,0-14.55-4.73Z"/><path class="cls-5" d="M29.86,98.37A12.54,12.54,0,0,1,19.7,97.29,16.76,16.76,0,0,1,12,86.81a31.15,31.15,0,0,0-.73,4.61c-.58,7.19,1.95,15,8.48,18.66a12.54,12.54,0,0,0,10.16,1.09c6.52-2.25,8.55-9.11,8.62-15.36,0-2.75-.25-5.49-.43-8.23C37.17,92.31,34.8,96.67,29.86,98.37Z"/><path class="cls-5" d="M96.6,86.81a16.76,16.76,0,0,1-7.75,10.48,12.54,12.54,0,0,1-10.16,1.08c-4.94-1.7-7.3-6.06-8.18-10.79-.19,2.74-.46,5.48-.43,8.23.06,6.25,2.09,13.11,8.61,15.36a12.54,12.54,0,0,0,10.16-1.09c6.53-3.67,9.06-11.47,8.49-18.66A32.55,32.55,0,0,0,96.6,86.81Z"/><path class="cls-6" d="M69.3,53.13a1.43,1.43,0,0,1,1.15-.49c.67.11.92.93,1,1.6a11.7,11.7,0,0,1-.66,4.87,1,1,0,0,1-.37.54,1,1,0,0,1-.78,0c-1.16-.39-4.21-.7-3.54-2.48.28-.74,1.1-1.32,1.58-1.93A17.42,17.42,0,0,1,69.3,53.13Z"/><path class="cls-6" d="M34.08,53.16a1.45,1.45,0,0,0-1.18-.41c-.66.16-.85,1-.86,1.66a11.7,11.7,0,0,0,1,4.81.94.94,0,0,0,.41.52,1,1,0,0,0,.77-.09c1.14-.47,4.16-1,3.37-2.71-.33-.72-1.19-1.25-1.7-1.83A19.42,19.42,0,0,0,34.08,53.16Z"/><path class="cls-7" d="M33,57.91H70.7a0,0,0,0,1,0,0V85.42a18.83,18.83,0,0,1-18.83,18.83h0A18.83,18.83,0,0,1,33,85.42V57.91a0,0,0,0,1,0,0Z"/><path class="cls-5" d="M51.87,93.7A18.83,18.83,0,0,1,33,74.87V85.42a18.83,18.83,0,0,0,37.66,0V74.87A18.83,18.83,0,0,1,51.87,93.7Z"/><path class="cls-8" d="M60.64,36.56a10.7,10.7,0,0,1-21.4,0Z"/><path class="cls-3" d="M101.12,60.11C95.58,59.45,90,56.43,87.8,51.29c-1.28-3-1.26-6.44-1.55-9.72s-1-6.77-3.42-9-6.51-3.15-8.32-6.11C73,24,73.31,22,74.83,19.57s4.46-4.5,6.75-6.19c4.94-3.65,8.83-9,14.81-7.69,3.07.7,6.7,4.78,9.17,6.71,4.44,3.48,8.93,5.84,13.37,9.32,2,1.55,4.49,2.84,5.85,5A16.83,16.83,0,0,1,127,35.23c.11,3.28-.35,6.76-2.32,9.39s-5.82,4.06-8.7,2.47c1.56,3,4,8.86.42,11.23S105.18,60.59,101.12,60.11Z"/><path class="cls-4" d="M83.73,38a3.38,3.38,0,1,0,6.75,0"/><path class="cls-4" d="M117.82,61.05a25.86,25.86,0,0,0-1.48-11c-.27-.78-.57-1.54-.9-2.29"/><path class="cls-4" d="M143.82,100.48A9.57,9.57,0,0,0,150,97.67c2.39-2.64,2.47-6.69,1.47-10.1a13.19,13.19,0,0,0-5.53-7.78c-2.79-1.67-6.66-1.74-9.14.38a8.34,8.34,0,0,0-2.62,5,17.53,17.53,0,0,0,.19,5.73"/><path class="cls-3" d="M128.26,15.17c4.46-1.2,9-3.05,13.54-2.32a12.64,12.64,0,0,1,9.82,8.47c1,3.35.67,7.09,2.19,10.25,2,4.24,7.26,7.09,7.21,11.79,0,3.63-3.62,6.46-7.23,6.84s-7.15-1.11-10.35-2.83-6.32-3.74-9.85-4.58c-5.79-1.38-12.22.52-17.62-2a12.46,12.46,0,0,1-6.8-8.57c-1.16-5.33,1.55-11.33,5.54-14.9C118.05,14.36,124,16.31,128.26,15.17Z"/><path class="cls-4" d="M77.53,17.19l10.9-9.32A11.33,11.33,0,0,1,93,5.08,7.77,7.77,0,0,1,98.86,6.4a30,30,0,0,1,4.61,4,65.94,65.94,0,0,0,13.29,10c2.21,1.27,4.57,2.46,6.18,4.44a13.83,13.83,0,0,1,2.58,6.23,30.09,30.09,0,0,1,.13,10.58,8.82,8.82,0,0,1-2.27,5.12,6.62,6.62,0,0,1-6.11,1.26,14.58,14.58,0,0,1-5.59-3.23A36.3,36.3,0,0,1,99.49,22.81"/><path class="cls-3" d="M191.65,68.05a8.66,8.66,0,0,1-5.73-8.48c.21-3.25,2.36-6.36,1.63-9.53-.29-1.23-1-2.46-.67-3.68s1.85-2,3.19-2.45C208.68,38,208.24,73.76,191.65,68.05Z"/></g></g></svg>