<svg xmlns="http://www.w3.org/2000/svg" viewBox="0 0 108.64 106.85"><defs><style>.cls-1,.cls-4{fill:#dfe2e5;}.cls-1,.cls-2,.cls-3,.cls-8{stroke:#0e0e0e;stroke-linecap:round;stroke-linejoin:round;stroke-width:2px;}.cls-2{fill:#a4b0be;}.cls-3{fill:none;}.cls-5{fill:#444;opacity:0.1;}.cls-6,.cls-8{fill:#fff;}.cls-7{fill:#0e0e0e;}</style></defs><title>doggo2</title><g id="Layer_2" data-name="Layer 2"><g id="Layer_1-2" data-name="Layer 1"><path class="cls-1" d="M106.59,97.42a10.44,10.44,0,0,0-2.13-3V54.84c0-10.56-9.85-19.13-22-19.13h0V97.2h4.17a5.11,5.11,0,0,0,.58,2.77,8.52,8.52,0,0,0,5.45,3.9,27.44,27.44,0,0,0,7.2.72,10.21,10.21,0,0,0,4.88-.79C107.17,102.5,107.53,99.57,106.59,97.42Z"/><path class="cls-1" d="M2.05,97.42a10.44,10.44,0,0,1,2.13-3V54.84c0-10.56,9.85-19.13,22-19.13h0V97.2H22a5.11,5.11,0,0,1-.58,2.77,8.52,8.52,0,0,1-5.45,3.9,27.44,27.44,0,0,1-7.2.72,10.21,10.21,0,0,1-4.88-.79C1.47,102.5,1.11,99.57,2.05,97.42Z"/><ellipse class="cls-2" cx="54.32" cy="79.63" rx="39.21" ry="15.96"/><path class="cls-3" d="M30.11,81.79A6.88,6.88,0,0,1,32.56,76,13.14,13.14,0,0,0,30.11,81.79Zm46-5.82a6.88,6.88,0,0,1,2.45,5.82A13.14,13.14,0,0,0,76.08,76Z"/><path class="cls-4" d="M16.08,55c2.48,5,1.86,10.87.44,16.22s-3.6,10.59-4.13,16.08.87,11.52,5.49,15.11a18.3,18.3,0,0,0,10.56,3.44A14.86,14.86,0,0,0,36.81,104c2.41-1.51,4-4.24,3.4-6.84S37,92.64,34.12,92l-.87-.16.38-1.3a5.39,5.39,0,0,1,2.26-7.81l.23-.8a45.6,45.6,0,0,0,13.67-1.56C55.14,78.67,60,74.89,61.14,69.86V55Z"/><path class="cls-1" d="M25.4,92.17a21.92,21.92,0,0,1,8.72-.2c2.83.67,5.49,2.58,6.09,5.17s-1,5.33-3.4,6.84a14.86,14.86,0,0,1-8.37,1.86,18.3,18.3,0,0,1-10.56-3.44c-4.62-3.59-6-9.62-5.49-15.11s2.71-10.72,4.13-16.08S18.56,60,16.08,55H61.14V69.86c-1.1,5-6,8.81-11.35,10.48S38.65,82,33,81.87"/><path class="cls-4" d="M92.56,55c-2.48,5-1.86,10.87-.44,16.22s3.6,10.59,4.14,16.08-.88,11.52-5.5,15.11a18.3,18.3,0,0,1-10.56,3.44A14.86,14.86,0,0,1,71.83,104c-2.41-1.51-4-4.24-3.4-6.84s3.26-4.5,6.09-5.17l.87-.16L75,90.51a5.39,5.39,0,0,0-2.26-7.81l-.23-.8a45.6,45.6,0,0,1-13.67-1.56C53.5,78.67,48.6,74.89,47.5,69.86V55Z"/><path class="cls-3" d="M83.24,92.17a21.91,21.91,0,0,0-8.72-.2c-2.83.67-5.49,2.58-6.09,5.17s1,5.33,3.4,6.84a14.86,14.86,0,0,0,8.37,1.86,18.3,18.3,0,0,0,10.56-3.44c4.62-3.59,6-9.62,5.5-15.11s-2.72-10.72-4.14-16.08S90.08,60,92.56,55H47.5"/><path class="cls-3" d="M32.89,91.75a10,10,0,0,1,2.65-9.19"/><path class="cls-1" d="M51.33,76.13a20.17,20.17,0,0,0,7.52,4.21C64.2,82,70,82,75.65,81.87"/><path class="cls-3" d="M75.75,91.75a10,10,0,0,0-2.65-9.19"/><path class="cls-1" d="M98,38.06a28,28,0,0,0-3.7-6.8c-.68-.94-1.89-1.91-2.37-3a19.68,19.68,0,0,1-.62-3.11A27.92,27.92,0,0,0,67.9,4.39a17.8,17.8,0,0,0-7.65.48,11.68,11.68,0,0,0-2.64,1.21,6.24,6.24,0,0,1-6.58,0,11.68,11.68,0,0,0-2.64-1.21,17.8,17.8,0,0,0-7.65-.48A27.92,27.92,0,0,0,17.3,25.2a19.68,19.68,0,0,1-.62,3.11c-.48,1-1.69,2-2.37,3a28,28,0,0,0-3.7,6.8,19.66,19.66,0,0,0-1.2,8.59c.66,6.81,5.51,12.84,11.72,15.7s13.53,2.76,20,.54c5.14-1.77,10-5.07,12.28-10a16.28,16.28,0,0,0,.91-2.68,15.43,15.43,0,0,0,.92,2.68c2.23,5,7.13,8.26,12.27,10,6.47,2.22,13.8,2.32,20-.54s11.06-8.89,11.72-15.7A19.66,19.66,0,0,0,98,38.06Z"/><path class="cls-5" d="M87.51,50.45c-6.2,2.86-13.53,2.76-20,.54-5.14-1.76-10-5.07-12.27-10a15.43,15.43,0,0,1-.92-2.68A16.28,16.28,0,0,1,53.41,41c-2.24,5-7.14,8.27-12.28,10-6.47,2.22-13.8,2.32-20-.54A20.79,20.79,0,0,1,10.34,38.86a19.43,19.43,0,0,0-.93,7.79c.66,6.81,5.51,12.84,11.72,15.7s13.53,2.76,20,.54c5.14-1.77,10-5.07,12.28-10a16.28,16.28,0,0,0,.91-2.68,15.43,15.43,0,0,0,.92,2.68c2.23,5,7.13,8.26,12.27,10,6.47,2.22,13.8,2.32,20-.54s11.06-8.89,11.72-15.7a19.43,19.43,0,0,0-.93-7.79A20.79,20.79,0,0,1,87.51,50.45Z"/><path class="cls-3" d="M65.62,26.14c-2.69-.5-3.53-1.45-4.3-2.88a3.83,3.83,0,0,1,.73-4.47"/><path class="cls-3" d="M43,26.14c2.69-.5,3.53-1.45,4.3-2.88a3.83,3.83,0,0,0-.73-4.47"/><path class="cls-6" d="M84.24,26.65a6.71,6.71,0,1,1-13.42,0"/><path class="cls-7" d="M80.17,26.65a2.65,2.65,0,0,1-5.29,0"/><line class="cls-3" x1="67.3" y1="26.65" x2="85.82" y2="26.65"/><path class="cls-6" d="M24.84,26.65a6.71,6.71,0,1,0,13.42,0"/><path class="cls-7" d="M28.91,26.65a2.65,2.65,0,0,0,5.29,0"/><line class="cls-3" x1="41.78" y1="26.65" x2="23.26" y2="26.65"/><path class="cls-3" d="M73,30.47a11.47,11.47,0,0,0,5.34,4.67,7,7,0,0,0,6.83-.86"/><path class="cls-3" d="M35.67,30.47a11.37,11.37,0,0,1-5.34,4.67,7,7,0,0,1-6.83-.86"/><path class="cls-2" d="M48.25,24.83A18.86,18.86,0,0,0,30.7,39.91a30.81,30.81,0,0,1-2.38,7.21l-3.55,7.23c-2.16,4.17-4.05,8.6-4.43,13.29-.45,5.61,1.54,11.7,6.7,14.57a10,10,0,0,0,8,.84c5.15-1.75,6.75-7.11,6.8-12,0-3.93-.73-7.86-.37-11.78s2.17-8.06,5.77-9.66c1.4-.62,3-.81,4.34-1.53a3.63,3.63,0,0,0,2.09-3.22l.64,0,.64,0a3.63,3.63,0,0,0,2.09,3.22c1.36.72,2.94.91,4.34,1.53,3.6,1.6,5.41,5.74,5.77,9.66s-.41,7.85-.37,11.78c0,4.88,1.65,10.24,6.8,12a10,10,0,0,0,8-.84c5.16-2.87,7.15-9,6.7-14.57C87.92,63,86,58.52,83.87,54.35l-3.55-7.23a30.81,30.81,0,0,1-2.38-7.21A18.88,18.88,0,0,0,59.19,24.8Z"/><path class="cls-5" d="M35.05,73.06a10,10,0,0,1-8-.84A13.09,13.09,0,0,1,20.92,64a24.11,24.11,0,0,0-.58,3.6c-.45,5.61,1.54,11.7,6.7,14.57a10,10,0,0,0,8,.84c5.15-1.75,6.75-7.11,6.8-12,0-2.14-.19-4.29-.34-6.43C40.82,68.33,39,71.74,35.05,73.06Z"/><path class="cls-5" d="M87.72,64a13.09,13.09,0,0,1-6.12,8.18,10,10,0,0,1-8,.84c-3.9-1.32-5.77-4.73-6.46-8.43-.15,2.14-.36,4.29-.34,6.43,0,4.88,1.65,10.24,6.8,12a10,10,0,0,0,8-.84c5.16-2.87,7.15-9,6.7-14.57A24.11,24.11,0,0,0,87.72,64Z"/><path class="cls-7" d="M59.32,30.47H49.71a4.34,4.34,0,0,0-3.58,1.81,3.16,3.16,0,0,0,2.4,5.18h0a3.15,3.15,0,0,1,3.12,2.7l.4,2.83h3.81l.41-2.83a3.15,3.15,0,0,1,3.12-2.7h.71a3.09,3.09,0,0,0,3.1-2.82A3.89,3.89,0,0,0,59.32,30.47Z"/><path class="cls-8" d="M66.52,37.72a1.19,1.19,0,0,1,.8-.56c.53,0,.85.57,1,1.08a9,9,0,0,1,.26,3.83.71.71,0,0,1-.19.47.78.78,0,0,1-.6.09c-1-.12-3.34.13-3.1-1.34a7.13,7.13,0,0,1,.9-1.73A14.49,14.49,0,0,1,66.52,37.72Z"/><path class="cls-8" d="M42.12,37.72a1.19,1.19,0,0,0-.8-.56c-.53,0-.85.57-1,1.08a9,9,0,0,0-.26,3.83.71.71,0,0,0,.19.47.8.8,0,0,0,.61.09c1-.12,3.33.13,3.09-1.34a7.13,7.13,0,0,0-.9-1.73A14.49,14.49,0,0,0,42.12,37.72Z"/><path class="cls-2" d="M40,41.91h28.7a0,0,0,0,1,0,0v21A14.35,14.35,0,0,1,54.32,77.22h0A14.35,14.35,0,0,1,40,62.87v-21A0,0,0,0,1,40,41.91Z"/><path class="cls-5" d="M54.32,69.18A14.36,14.36,0,0,1,40,54.83v8a14.35,14.35,0,0,0,28.7,0v-8A14.35,14.35,0,0,1,54.32,69.18Z"/><line class="cls-3" x1="44.26" y1="46.71" x2="64.39" y2="46.71"/><path class="cls-6" d="M67.36,22.82a16.51,16.51,0,0,0,10.71,0,5.76,5.76,0,0,0,1.92-1,1.9,1.9,0,0,0,.72-1.73,2.19,2.19,0,0,0-1.46-1.39A8,8,0,0,0,77,18.33c-2.79-.18-7.33-.85-10,.06C64.1,19.36,64.94,22,67.36,22.82Z"/><path class="cls-6" d="M41.26,22.82a16.48,16.48,0,0,1-10.7,0,5.66,5.66,0,0,1-1.92-1,1.89,1.89,0,0,1-.73-1.73,2.19,2.19,0,0,1,1.46-1.39,8.11,8.11,0,0,1,2.27-.37c2.79-.18,7.32-.85,10,.06C44.52,19.36,43.68,22,41.26,22.82Z"/><path class="cls-1" d="M69.7,6.23c9.81-1.41,20.06-3.62,29.87-5a7.74,7.74,0,0,1,4.22.19c2.38,1.06,3,4.09,3.27,6.69a126.93,126.93,0,0,1,.2,22,4.54,4.54,0,0,1-.88,2.83c-1,1.08-2.7,1-4.13.68a27.7,27.7,0,0,1-21-21"/><path class="cls-1" d="M38.94,6.23c-9.81-1.41-20.06-3.62-29.87-5a7.74,7.74,0,0,0-4.22.19c-2.38,1.06-3,4.09-3.27,6.69a126.93,126.93,0,0,0-.2,22,4.54,4.54,0,0,0,.88,2.83c1,1.08,2.7,1,4.13.68a27.7,27.7,0,0,0,21-21"/><path class="cls-3" d="M4.38,93.84l3.87-.5"/><path class="cls-3" d="M104.26,93.84l-3.87-.5"/></g></g></svg>