<svg xmlns="http://www.w3.org/2000/svg" viewBox="0 0 80.26 152.17"><defs><style>.cls-1{fill:#ffb142;}.cls-1,.cls-2,.cls-5{stroke:#0e0e0e;stroke-linecap:round;stroke-linejoin:round;stroke-width:2px;}.cls-2{fill:#8b4a30;}.cls-3{fill:#0e0e0e;}.cls-4{fill:#ffe7c0;}.cls-5{fill:none;}.cls-6,.cls-8{fill:#444;}.cls-6,.cls-7{opacity:0.1;}</style></defs><title>doggo5</title><g id="Layer_2" data-name="Layer 2"><g id="Layer_1-2" data-name="Layer 1"><path class="cls-1" d="M18.23,122.57a10.58,10.58,0,0,0-5.9,15.94,16.48,16.48,0,0,0-3.25,8.6,4.15,4.15,0,0,0,.88,3.37c1.28,1.22,3.39.62,5-.19A29.87,29.87,0,0,0,30.06,131c1-4,.88-8.84-2.12-11.71"/><path class="cls-2" d="M60.7,110c3.27,2.33,8.09,1.57,11.11-1.07s4.43-6.76,4.63-10.77a28.92,28.92,0,0,0-.31-5.65.57.57,0,0,1,1.11-.27,36.76,36.76,0,0,1,2,10.61c.14,5.76-1.66,11.76-5.84,15.71S62.47,123.93,57.5,121"/><path class="cls-1" d="M17.59,44.39,7,43.16a4.59,4.59,0,0,0-2.5.17,4.36,4.36,0,0,0-1.95,2.86,34.23,34.23,0,0,0-1.5,12.56,11.4,11.4,0,0,0,1.7,5.92,5,5,0,0,0,5.4,2.15c2.17-.73,3.2-3.16,3.78-5.37a38.41,38.41,0,0,0,1.18-11.4"/><path class="cls-2" d="M35.15,8.21a31.51,31.51,0,0,0-7.62-4.39A10.63,10.63,0,0,0,19,4.14a10.3,10.3,0,0,0-4.43,5.58,23.65,23.65,0,0,0-1.13,7.15,23,23,0,0,0,1.13,9.31c1.15,2.93,3.5,5.55,6.57,6.27a9.16,9.16,0,0,0,8.8-3.22A14.31,14.31,0,0,0,33,20.07a33.72,33.72,0,0,0-1.7-9.68"/><path class="cls-1" d="M65.7,18.88c-1-6-4.36-11.9-9.94-14.2-3.59-1.49-7.62-1.34-11.5-1.16l-15.43.71a5.72,5.72,0,0,0-4,1.73c-2.71,2.9-1.2,7.26-2.87,10.76a11.55,11.55,0,0,0-1.25,4.16,23.55,23.55,0,0,0-3.68,12.67h0C10.6,47.65,10.08,58,14,71a53.73,53.73,0,0,1,2,13.27h0a7.64,7.64,0,0,1,.07,1.08l1,34.88a23.68,23.68,0,0,0,23.68,23.67h0A23.67,23.67,0,0,0,64.4,120.2l-1.46-18.63A319.08,319.08,0,0,1,64.4,37.13h0l.06-.27C65.55,30.92,66.65,24.84,65.7,18.88Z"/><circle class="cls-3" cx="26.71" cy="14.37" r="1.68"/><circle class="cls-3" cx="45.83" cy="14.37" r="1.68"/><path class="cls-4" d="M31.36,18.58c1.36.74,2.57,1.75,4,2.44a9.82,9.82,0,0,0,6,.89c.88-.14,1.74-.41,2.63-.49a3.48,3.48,0,0,1,2.52.64,3.84,3.84,0,0,1,.87,3.71c-.83,4.24-4.61,7.44-8.76,8.65s-8.59.72-12.81-.19A31.58,31.58,0,0,1,16.55,31,15.68,15.68,0,0,1,9.9,24.06a4.63,4.63,0,0,1-.35-3.68,3.85,3.85,0,0,1,3-2.06,13.84,13.84,0,0,1,3.8.13,40.25,40.25,0,0,0,8.64,0c1-.11,1.8-.56,2.76-.74A5.81,5.81,0,0,1,31.36,18.58Z"/><path class="cls-5" d="M34,11.28a6.45,6.45,0,0,1-3.39,5.89,15.72,15.72,0,0,1-6.89,1.77,63.24,63.24,0,0,1-10,0c-1.34-.1-2.93-.15-3.77.9a3.45,3.45,0,0,0-.32,3A13.57,13.57,0,0,0,15,30.31a27.86,27.86,0,0,0,8.47,3.93c5,1.54,10.44,2.41,15.38.74s10-7.21,8.7-12.62"/><path class="cls-3" d="M7.14,17.75H16a.8.8,0,0,1,.8.8v0A4.77,4.77,0,0,1,12,23.32H11.1a4.77,4.77,0,0,1-4.77-4.77v0a.8.8,0,0,1,.8-.8Z" transform="matrix(0.99, 0.14, -0.14, 0.99, 3.02, -1.43)"/><path class="cls-4" d="M24.8,42.19A11.9,11.9,0,0,1,38,44.05c3.25,3,4.48,7.61,5.29,12A105.77,105.77,0,0,1,36,117.65c-.81,1.83-1.81,3.77-3.64,4.57-2.93,1.27-6.21-1.12-7.93-3.81-3.22-5.06-3.71-11.33-4.11-17.31L18.05,66.23C17.52,58.18,15.93,46.7,24.8,42.19Z"/><path class="cls-1" d="M51.94,44.39,41.38,43.16a4.6,4.6,0,0,0-2.5.17,4.31,4.31,0,0,0-1.94,2.86,34,34,0,0,0-1.51,12.56,11.49,11.49,0,0,0,1.7,5.92,5,5,0,0,0,5.4,2.15c2.17-.73,3.21-3.16,3.78-5.37a38.41,38.41,0,0,0,1.18-11.4"/><path class="cls-5" d="M64.31,121.42c0-.47.06-.93.08-1.37"/><path class="cls-1" d="M50.09,122.57a10.58,10.58,0,0,0-5.91,15.94,16.48,16.48,0,0,0-3.25,8.6,4.15,4.15,0,0,0,.88,3.37c1.29,1.22,3.39.62,5-.19,7.48-3.86,14.07-10.95,16.06-19.13.23-1,.86-4.56.94-5.58"/><path class="cls-6" d="M65.7,18.88c-1-6-4.36-11.9-9.94-14.2-3.59-1.49-7.62-1.34-11.5-1.16L43,3.58a16.26,16.26,0,0,1,4.56,1.1c5.58,2.3,9,8.23,9.94,14.2s-.15,12-1.25,18a2.56,2.56,0,0,1-.05.27,319.08,319.08,0,0,0-1.46,64.44l1.46,18.63A23.65,23.65,0,0,1,41.82,142a7.09,7.09,0,0,1-.44,2c1.53.43-2.36,2.65.09,1.67-2.34,2.85-.22,3.07-.35,3.73a2.7,2.7,0,0,0,.69,1.13c1.29,1.22,3.39.62,5-.19,7.48-3.86,14.07-10.95,16.06-19.13.23-1,.86-4.56.94-5.58h0a23.85,23.85,0,0,0,.62-5.38l-1.46-18.63A319.08,319.08,0,0,1,64.4,37.13l.06-.27C65.55,30.92,66.65,24.84,65.7,18.88Z"/><path class="cls-2" d="M50.32,7.34a39.23,39.23,0,0,1,9.42-5.43c3.43-1.2,7.4-1.36,10.58.4a12.59,12.59,0,0,1,5.47,6.9,29.05,29.05,0,0,1,1.41,8.85c.15,3.89,0,7.88-1.4,11.51s-4.33,6.86-8.12,7.76c-4,.94-8.26-.89-10.89-4A17.71,17.71,0,0,1,53,22a41.54,41.54,0,0,1,2.1-12"/><path class="cls-5" d="M50.32,7.34a39.23,39.23,0,0,1,9.42-5.43c3.43-1.2,7.4-1.36,10.58.4a12.59,12.59,0,0,1,5.47,6.9,29.05,29.05,0,0,1,1.41,8.85c.15,3.89,0,7.88-1.4,11.51s-4.33,6.86-8.12,7.76c-4,.94-8.26-.89-10.89-4A17.71,17.71,0,0,1,53,22a41.54,41.54,0,0,1,2.1-12"/><g class="cls-7"><path class="cls-8" d="M77.08,18.06a29.35,29.35,0,0,0-1.4-8.85,12.61,12.61,0,0,0-5.48-6.9,9.55,9.55,0,0,0-1.93-.79A15.74,15.74,0,0,1,69,3.21a29.47,29.47,0,0,1,1.4,8.86c.15,3.89,0,7.88-1.4,11.51s-4.33,6.86-8.12,7.76a10.1,10.1,0,0,1-5.9-.47,14.23,14.23,0,0,0,1.68,2.48c2.64,3.09,6.93,4.92,10.89,4,3.79-.9,6.71-4.13,8.12-7.76S77.23,22,77.08,18.06Z"/></g></g></g></svg>