<?xml version="1.0" encoding="utf-8"?>
<!-- Generator: Adobe Illustrator 22.0.1, SVG Export Plug-In . SVG Version: 6.00 Build 0)  -->
<svg version="1.1" xmlns="http://www.w3.org/2000/svg" xmlns:xlink="http://www.w3.org/1999/xlink" x="0px" y="0px"
	 viewBox="0 0 2000 2000" style="enable-background:new 0 0 2000 2000;" xml:space="preserve">
<style type="text/css">
	.st0{display:none;}
	.st1{display:inline;fill:#00CFFF;}
	.st2{fill:#753F04;}
	.st3{display:inline;opacity:0.1;}
	.st4{display:inline;}
	.st5{fill:#B5B5B5;}
	.st6{display:inline;fill:#FF0000;}
	.st7{fill:#FFFFFF;}
	.st8{display:inline;fill:#98F900;}
	.st9{display:inline;fill:#EAEAEA;}
	.st10{opacity:0.1;}
	.st11{fill:none;stroke:#FFFFFF;stroke-width:2;stroke-miterlimit:10;}
	.st12{fill:none;stroke:#FFFFFF;stroke-width:2;stroke-miterlimit:10;stroke-dasharray:9.9651,19.9302;}
</style>
<g id="Layer_1">
	<g class="st0">
		<rect class="st1" width="2000" height="2000"/>
	</g>
	<g>
		<rect x="0" y="1533.3" class="st2" width="2000" height="466.7"/>
	</g>
</g>
<g id="Layer_2" class="st0">
	<g class="st3">
		<path d="M1187.2,734h-10v1h10V734L1187.2,734z M1157.2,734h-10v1h10V734L1157.2,734z M1127.2,734h-10v1h10V734L1127.2,734z
			 M1097.2,734h-10v1h10V734L1097.2,734z M1067.2,734h-10v1h10V734L1067.2,734z M1037.2,734h-10v1h10V734L1037.2,734z M1007.2,734
			h-10v1h10V734L1007.2,734z M977.2,734h-10v1h10V734L977.2,734z M947.2,734h-10v1h10V734L947.2,734z M917.2,734h-10v1h10V734
			L917.2,734z M887.2,734h-10v1h10V734L887.2,734z M857.2,734h-10v1h10V734L857.2,734z M827.2,734h-10v1h10V734L827.2,734z
			 M813.2,749h-1v10h1V749L813.2,749z M813.2,779h-1v10h1V779L813.2,779z M813.2,809h-1v10h1V809L813.2,809z M813.2,839h-1v10h1V839
			L813.2,839z M813.2,869h-1v10h1V869L813.2,869z M813.2,899h-1v10h1V899L813.2,899z M813.2,929h-1v10h1V929L813.2,929z M813.2,959
			h-1v10h1V959L813.2,959z M813.2,989h-1v10h1V989L813.2,989z M813.2,1019h-1v10h1V1019L813.2,1019z M813.2,1049h-1v10h1V1049
			L813.2,1049z M813.2,1079h-1v10h1V1079L813.2,1079z M813.2,1109h-1v10h1V1109L813.2,1109z M813.2,1139h-1v10h1V1139L813.2,1139z
			 M813.2,1169h-1v10h1V1169L813.2,1169z M813.2,1199h-1v10h1V1199L813.2,1199z M813.2,1229h-1v10h1V1229L813.2,1229z M813.2,1259
			h-1v10h1V1259L813.2,1259z M813.2,1289h-1v10h1V1289L813.2,1289z M813.2,1319h-1v10h1V1319L813.2,1319z M813.2,1349h-1v10h1V1349
			L813.2,1349z M813.2,1379h-1v10h1V1379L813.2,1379z M830.2,1400h-10v1h10V1400L830.2,1400z M860.2,1400h-10v1h10V1400L860.2,1400z
			 M890.2,1400h-10v1h10V1400L890.2,1400z M920.2,1400h-10v1h10V1400L920.2,1400z M950.2,1400h-10v1h10V1400L950.2,1400z
			 M980.2,1400h-10v1h10V1400L980.2,1400z M1010.2,1400h-10v1h10V1400L1010.2,1400z M1040.2,1400h-10v1h10V1400L1040.2,1400z
			 M1070.2,1400h-10v1h10V1400L1070.2,1400z M1100.2,1400h-10v1h10V1400L1100.2,1400z M1130.2,1400h-10v1h10V1400L1130.2,1400z
			 M1160.2,1400h-10v1h10V1400L1160.2,1400z M1187.2,1398h-1v2h-6v1h7V1398L1187.2,1398z M1187.2,1368h-1v10h1V1368L1187.2,1368z
			 M1187.2,1338h-1v10h1V1338L1187.2,1338z M1187.2,1308h-1v10h1V1308L1187.2,1308z M1187.2,1278h-1v10h1V1278L1187.2,1278z
			 M1187.2,1248h-1v10h1V1248L1187.2,1248z M1187.2,1218h-1v10h1V1218L1187.2,1218z M1187.2,1188h-1v10h1V1188L1187.2,1188z
			 M1187.2,1158h-1v10h1V1158L1187.2,1158z M1187.2,1128h-1v10h1V1128L1187.2,1128z M1187.2,1098h-1v10h1V1098L1187.2,1098z
			 M1187.2,1068h-1v10h1V1068L1187.2,1068z M1187.2,1038h-1v10h1V1038L1187.2,1038z M1187.2,1008h-1v10h1V1008L1187.2,1008z
			 M1187.2,978h-1v10h1V978L1187.2,978z M1187.2,948h-1v10h1V948L1187.2,948z M1187.2,918h-1v10h1V918L1187.2,918z M1187.2,888h-1
			v10h1V888L1187.2,888z M1187.2,858h-1v10h1V858L1187.2,858z M1187.2,828h-1v10h1V828L1187.2,828z M1187.2,798h-1v10h1V798
			L1187.2,798z M1187.2,768h-1v10h1V768L1187.2,768z M1187.2,738h-1v10h1V738L1187.2,738z"/>
	</g>
</g>
<g id="Layer_3" class="st0">
	<g class="st4">
		<rect x="350" y="1001" class="st5" width="200" height="600"/>
	</g>
</g>
<g id="Layer_4">
	<g>
		<rect x="915" y="901" class="st5" width="150" height="700"/>
	</g>
	<rect x="966" y="952" width="50" height="50"/>
	<rect x="966" y="1331" width="50" height="50"/>
	<g id="BrinkFlag" class="st0">
		<rect x="840" y="762" class="st6" width="300" height="71"/>
		<g class="st4">
			<path class="st7" d="M949.6,787.5c0.8-0.2,2.1-0.3,3.3-0.3c1.8,0,3,0.3,3.9,1c0.7,0.5,1.2,1.4,1.2,2.5c0,1.4-0.9,2.6-2.4,3.1v0
				c1.3,0.3,2.9,1.4,2.9,3.5c0,1.2-0.5,2.1-1.2,2.8c-1,0.9-2.6,1.3-4.9,1.3c-1.3,0-2.2-0.1-2.8-0.2V787.5z M951.4,793.3h1.7
				c1.9,0,3.1-1,3.1-2.4c0-1.7-1.3-2.3-3.1-2.3c-0.8,0-1.3,0.1-1.6,0.1V793.3z M951.4,800.1c0.4,0.1,0.9,0.1,1.5,0.1
				c1.9,0,3.6-0.7,3.6-2.8c0-1.9-1.7-2.7-3.7-2.7h-1.5V800.1z"/>
			<path class="st7" d="M960.9,794.5c0-1.2,0-2.2-0.1-3.2h1.6l0.1,2h0.1c0.5-1.4,1.6-2.2,2.8-2.2c0.2,0,0.4,0,0.5,0.1v1.7
				c-0.2,0-0.4-0.1-0.6-0.1c-1.3,0-2.2,1-2.5,2.4c0,0.3-0.1,0.5-0.1,0.9v5.4h-1.8V794.5z"/>
			<path class="st7" d="M969.9,788.5c0,0.6-0.4,1.1-1.2,1.1c-0.7,0-1.1-0.5-1.1-1.1c0-0.7,0.5-1.2,1.2-1.2
				C969.5,787.3,969.9,787.8,969.9,788.5z M967.9,801.5v-10.2h1.8v10.2H967.9z"/>
			<path class="st7" d="M972.8,794.1c0-1,0-1.9-0.1-2.8h1.6l0.1,1.7h0c0.5-1,1.7-1.9,3.4-1.9c1.4,0,3.6,0.8,3.6,4.3v6.1h-1.8v-5.9
				c0-1.6-0.6-3-2.4-3c-1.2,0-2.2,0.9-2.5,1.9c-0.1,0.2-0.1,0.5-0.1,0.9v6.1h-1.8V794.1z"/>
			<path class="st7" d="M986.3,796L986.3,796c0.3-0.4,0.7-0.8,0.9-1.2l3-3.5h2.2l-3.9,4.2l4.5,6h-2.2l-3.5-4.9l-0.9,1v3.8h-1.8
				v-14.9h1.8V796z"/>
			<path class="st7" d="M998.9,801.5v-8.8h-1.4v-1.4h1.4v-0.4c0-1.4,0.5-2.7,1.4-3.5c0.8-0.7,1.8-1,3.3-1c1.2,0,2.3,0.3,3,0.7v14.5
				h-1.8v-13.4c-0.3-0.2-0.8-0.3-1.5-0.3c-1.9,0-2.6,1.4-2.6,3v0.5h2.4v1.4h-2.4v8.8H998.9z"/>
			<path class="st7" d="M1015.3,801.5l-0.1-1.3h-0.1c-0.6,0.8-1.7,1.5-3.1,1.5c-2.1,0-3.1-1.4-3.1-2.9c0-2.5,2.2-3.8,6.1-3.8v-0.2
				c0-0.8-0.2-2.4-2.3-2.4c-0.9,0-1.9,0.3-2.6,0.8l-0.4-1.2c0.8-0.5,2.1-0.9,3.3-0.9c3.1,0,3.9,2.1,3.9,4.2v3.8c0,0.9,0,1.7,0.2,2.4
				H1015.3z M1015.1,796.3c-2,0-4.3,0.3-4.3,2.3c0,1.2,0.8,1.8,1.7,1.8c1.3,0,2.2-0.8,2.5-1.7c0.1-0.2,0.1-0.4,0.1-0.6V796.3z"/>
			<path class="st7" d="M1028.6,791.3c0,0.7-0.1,1.6-0.1,2.8v5.9c0,2.3-0.5,3.8-1.4,4.6c-1,0.9-2.4,1.2-3.7,1.2
				c-1.2,0-2.6-0.3-3.4-0.8l0.5-1.4c0.7,0.4,1.7,0.8,3,0.8c1.9,0,3.3-1,3.3-3.5v-1.1h0c-0.6,0.9-1.7,1.7-3.2,1.7
				c-2.5,0-4.3-2.1-4.3-5c0-3.4,2.2-5.4,4.6-5.4c1.8,0,2.7,0.9,3.2,1.8h0l0.1-1.5H1028.6z M1026.7,795.3c0-0.3,0-0.6-0.1-0.8
				c-0.3-1.1-1.2-2-2.6-2c-1.8,0-3,1.5-3,3.8c0,2,1,3.7,3,3.7c1.1,0,2.2-0.7,2.6-1.9c0.1-0.3,0.1-0.7,0.1-1V795.3z"/>
		</g>
	</g>
	<g id="Wundertower" class="st0">
		<rect x="840" y="762" class="st8" width="300" height="71"/>
		<g class="st4">
			<path d="M932.9,807l-3.6-14.2h1.9l1.7,7.2c0.4,1.8,0.8,3.5,1,4.9h0c0.2-1.4,0.7-3.1,1.2-4.9l1.9-7.1h1.9l1.7,7.2
				c0.4,1.7,0.8,3.4,1,4.9h0c0.3-1.6,0.7-3.1,1.1-4.9l1.9-7.1h1.9l-4,14.2h-1.9l-1.8-7.4c-0.4-1.8-0.7-3.2-0.9-4.6h0
				c-0.3,1.4-0.6,2.8-1.1,4.6l-2,7.4H932.9z"/>
			<path d="M950.2,792.8v8.4c0,3.2,1.4,4.5,3.3,4.5c2.1,0,3.4-1.4,3.4-4.5v-8.4h1.8v8.3c0,4.3-2.3,6.1-5.4,6.1c-2.9,0-5.1-1.7-5.1-6
				v-8.3H950.2z"/>
			<path d="M961.9,807v-14.2h2l4.5,7.2c1,1.7,1.9,3.1,2.5,4.6l0,0c-0.2-1.9-0.2-3.6-0.2-5.8v-5.9h1.7V807h-1.8l-4.5-7.2
				c-1-1.6-1.9-3.2-2.6-4.7l-0.1,0c0.1,1.8,0.1,3.5,0.1,5.8v6H961.9z"/>
			<path d="M975.8,793c1.1-0.2,2.4-0.3,3.9-0.3c2.6,0,4.5,0.6,5.7,1.8c1.3,1.2,2,2.8,2,5.1c0,2.3-0.7,4.2-2,5.5
				c-1.3,1.3-3.5,2-6.3,2c-1.3,0-2.4-0.1-3.3-0.2V793z M977.6,805.6c0.5,0.1,1.1,0.1,1.8,0.1c3.9,0,6-2.2,6-6c0-3.3-1.9-5.5-5.7-5.5
				c-0.9,0-1.7,0.1-2.1,0.2V805.6z"/>
			<path d="M997.1,800.4h-5.5v5.1h6.1v1.5h-8v-14.2h7.6v1.5h-5.8v4.5h5.5V800.4z"/>
			<path d="M1000.1,793c0.9-0.2,2.2-0.3,3.5-0.3c2,0,3.2,0.4,4.1,1.2c0.7,0.6,1.1,1.6,1.1,2.7c0,1.9-1.2,3.1-2.7,3.6v0.1
				c1.1,0.4,1.7,1.4,2.1,2.9c0.5,2,0.8,3.3,1.1,3.9h-1.9c-0.2-0.4-0.5-1.6-0.9-3.4c-0.4-2-1.2-2.7-2.8-2.8h-1.7v6.1h-1.8V793z
				 M1001.9,799.5h1.9c2,0,3.2-1.1,3.2-2.7c0-1.8-1.3-2.6-3.3-2.6c-0.9,0-1.5,0.1-1.8,0.2V799.5z"/>
			<path d="M1014.3,794.4h-4.3v-1.6h10.5v1.6h-4.3V807h-1.8V794.4z"/>
			<path d="M1033.5,799.8c0,4.9-3,7.5-6.6,7.5c-3.7,0-6.4-2.9-6.4-7.2c0-4.5,2.8-7.4,6.6-7.4C1031,792.6,1033.5,795.6,1033.5,799.8z
				 M1022.6,800c0,3,1.6,5.7,4.5,5.7c2.9,0,4.5-2.7,4.5-5.9c0-2.8-1.5-5.8-4.5-5.8C1024.1,794.1,1022.6,796.9,1022.6,800z"/>
			<path d="M1038.2,807l-3.6-14.2h1.9l1.7,7.2c0.4,1.8,0.8,3.5,1,4.9h0c0.2-1.4,0.7-3.1,1.2-4.9l1.9-7.1h1.9l1.7,7.2
				c0.4,1.7,0.8,3.4,1,4.9h0c0.3-1.6,0.7-3.1,1.1-4.9l1.9-7.1h1.9l-4,14.2h-1.9l-1.8-7.4c-0.4-1.8-0.7-3.2-0.9-4.6h0
				c-0.3,1.4-0.6,2.8-1.1,4.6l-2,7.4H1038.2z"/>
			<path d="M1061,800.4h-5.5v5.1h6.1v1.5h-8v-14.2h7.6v1.5h-5.8v4.5h5.5V800.4z"/>
			<path d="M1064,793c0.9-0.2,2.2-0.3,3.5-0.3c2,0,3.2,0.4,4.1,1.2c0.7,0.6,1.1,1.6,1.1,2.7c0,1.9-1.2,3.1-2.7,3.6v0.1
				c1.1,0.4,1.7,1.4,2.1,2.9c0.5,2,0.8,3.3,1.1,3.9h-1.9c-0.2-0.4-0.5-1.6-0.9-3.4c-0.4-2-1.2-2.7-2.8-2.8h-1.7v6.1h-1.8V793z
				 M1065.8,799.5h1.9c2,0,3.2-1.1,3.2-2.7c0-1.8-1.3-2.6-3.3-2.6c-0.9,0-1.5,0.1-1.8,0.2V799.5z"/>
		</g>
	</g>
	<g id="Cloud" class="st0">
		<rect x="394" y="636" class="st9" width="247" height="112"/>
		<g class="st4">
			<path d="M502.5,697.5c-0.7,0.3-2,0.7-3.7,0.7c-4,0-7-2.5-7-7.2c0-4.4,3-7.4,7.4-7.4c1.8,0,2.9,0.4,3.4,0.6l-0.4,1.5
				c-0.7-0.3-1.7-0.6-2.9-0.6c-3.3,0-5.5,2.1-5.5,5.8c0,3.5,2,5.7,5.4,5.7c1.1,0,2.2-0.2,3-0.6L502.5,697.5z"/>
			<path d="M504.7,683.1h1.8V698h-1.8V683.1z"/>
			<path d="M518.9,692.8c0,3.8-2.6,5.4-5.1,5.4c-2.8,0-4.9-2-4.9-5.2c0-3.4,2.2-5.4,5-5.4C516.9,687.6,518.9,689.7,518.9,692.8z
				 M510.8,692.9c0,2.2,1.3,3.9,3.1,3.9c1.8,0,3.1-1.7,3.1-3.9c0-1.7-0.9-3.9-3-3.9S510.8,691,510.8,692.9z"/>
			<path d="M529.7,695.2c0,1,0,2,0.1,2.8h-1.6l-0.1-1.7h0c-0.5,0.8-1.6,1.9-3.4,1.9c-1.6,0-3.5-0.9-3.5-4.5v-5.9h1.8v5.6
				c0,1.9,0.6,3.2,2.3,3.2c1.2,0,2.1-0.9,2.4-1.7c0.1-0.3,0.2-0.6,0.2-0.9v-6.2h1.8V695.2z"/>
			<path d="M541.5,683.1v12.3c0,0.9,0,1.9,0.1,2.6H540l-0.1-1.8h0c-0.6,1.1-1.8,2-3.5,2c-2.5,0-4.3-2.1-4.3-5.2
				c0-3.4,2.1-5.5,4.6-5.5c1.6,0,2.6,0.7,3.1,1.6h0v-6.1H541.5z M539.7,692c0-0.2,0-0.5-0.1-0.8c-0.3-1.2-1.3-2.1-2.7-2.1
				c-1.9,0-3,1.7-3,3.9c0,2.1,1,3.8,3,3.8c1.2,0,2.4-0.8,2.7-2.2c0.1-0.3,0.1-0.5,0.1-0.8V692z"/>
		</g>
	</g>
	<g id="Cloud_1_" class="st0">
		<path class="st9" d="M814.2,623h-98.4c-0.4,0-0.8-0.3-0.8-0.8v-48.4c0-0.4,0.3-0.8,0.8-0.8h98.4c0.4,0,0.8,0.3,0.8,0.8v48.4
			C815,622.7,814.7,623,814.2,623z"/>
		<g class="st4">
			<path d="M749.3,597.9c0.1,0.4-0.1,0.8-0.5,0.9c-0.7,0.2-1.8,0.4-3,0.4c-4,0-7-2.5-7-7.2c0-4.4,3-7.4,7.4-7.4
				c1.2,0,2.1,0.2,2.7,0.4c0.4,0.1,0.6,0.6,0.5,1l0,0c-0.1,0.4-0.6,0.6-1,0.5c-0.6-0.2-1.3-0.3-2.1-0.3c-3.3,0-5.5,2.1-5.5,5.8
				c0,3.5,2,5.7,5.4,5.7c1.1,0,2.2-0.2,3-0.6L749.3,597.9z"/>
			<path d="M752.5,584.1h0.3c0.4,0,0.8,0.3,0.8,0.8v13.4c0,0.4-0.3,0.8-0.8,0.8h-0.3c-0.4,0-0.8-0.3-0.8-0.8v-13.4
				C751.7,584.4,752.1,584.1,752.5,584.1z"/>
			<path d="M765.9,593.8c0,3.8-2.6,5.4-5.1,5.4c-2.8,0-4.9-2-4.9-5.2c0-3.4,2.2-5.4,5-5.4C763.9,588.6,765.9,590.7,765.9,593.8z
				 M757.8,593.9c0,2.2,1.3,3.9,3.1,3.9c1.8,0,3.1-1.7,3.1-3.9c0-1.7-0.9-3.9-3-3.9S757.8,592,757.8,593.9z"/>
			<path d="M776.7,596.2c0,0.7,0,1.4,0,2c0,0.4-0.3,0.8-0.8,0.8h-0.1c-0.4,0-0.8-0.3-0.8-0.7l-0.1-0.9h0c-0.5,0.8-1.6,1.9-3.4,1.9
				c-1.6,0-3.5-0.9-3.5-4.5v-5.2c0-0.4,0.3-0.8,0.8-0.8h0.3c0.4,0,0.8,0.3,0.8,0.8v4.8c0,1.9,0.6,3.2,2.3,3.2c1.2,0,2.1-0.9,2.4-1.7
				c0.1-0.3,0.2-0.6,0.2-0.9v-5.5c0-0.4,0.3-0.8,0.8-0.8h0.3c0.4,0,0.8,0.3,0.8,0.8V596.2z"/>
			<path d="M787.8,584.1c0.4,0,0.8,0.3,0.8,0.8v11.5c0,0.6,0,1.2,0,1.8c0,0.4-0.3,0.8-0.8,0.8h-0.1c-0.4,0-0.8-0.3-0.8-0.7l0-1h0
				c-0.6,1.1-1.8,2-3.5,2c-2.5,0-4.3-2.1-4.3-5.2c0-3.4,2.1-5.5,4.6-5.5c1.6,0,2.6,0.7,3.1,1.6h0v-5.3c0-0.4,0.3-0.8,0.8-0.8H787.8z
				 M786.7,593c0-0.2,0-0.5-0.1-0.8c-0.3-1.2-1.3-2.1-2.7-2.1c-1.9,0-3,1.7-3,3.9c0,2.1,1,3.8,3,3.8c1.2,0,2.4-0.8,2.7-2.2
				c0.1-0.3,0.1-0.5,0.1-0.8V593z"/>
		</g>
	</g>
	<g id="Cloud_2_" class="st0">
		<path class="st9" d="M1128.2,605H929.8c-0.4,0-0.8-0.3-0.8-0.8v-58.4c0-0.4,0.3-0.8,0.8-0.8h198.4c0.4,0,0.8,0.3,0.8,0.8v58.4
			C1129,604.7,1128.7,605,1128.2,605z"/>
		<g class="st4">
			<path d="M1014.5,579.5c-0.7,0.3-2,0.7-3.7,0.7c-4,0-7-2.5-7-7.2c0-4.4,3-7.4,7.4-7.4c1.8,0,2.9,0.4,3.4,0.6l-0.4,1.5
				c-0.7-0.3-1.7-0.6-2.9-0.6c-3.3,0-5.5,2.1-5.5,5.8c0,3.5,2,5.7,5.4,5.7c1.1,0,2.2-0.2,3-0.6L1014.5,579.5z"/>
			<path d="M1016.7,565.1h1.8V580h-1.8V565.1z"/>
			<path d="M1030.9,574.8c0,3.8-2.6,5.4-5.1,5.4c-2.8,0-4.9-2-4.9-5.2c0-3.4,2.2-5.4,5-5.4C1028.9,569.6,1030.9,571.7,1030.9,574.8z
				 M1022.8,574.9c0,2.2,1.3,3.9,3.1,3.9c1.8,0,3.1-1.7,3.1-3.9c0-1.7-0.9-3.9-3-3.9S1022.8,573,1022.8,574.9z"/>
			<path d="M1041.7,577.2c0,1,0,2,0.1,2.8h-1.6l-0.1-1.7h0c-0.5,0.8-1.6,1.9-3.4,1.9c-1.6,0-3.5-0.9-3.5-4.5v-5.9h1.8v5.6
				c0,1.9,0.6,3.2,2.3,3.2c1.2,0,2.1-0.9,2.4-1.7c0.1-0.3,0.2-0.6,0.2-0.9v-6.2h1.8V577.2z"/>
			<path d="M1053.5,565.1v12.3c0,0.9,0,1.9,0.1,2.6h-1.7l-0.1-1.8h0c-0.6,1.1-1.8,2-3.5,2c-2.5,0-4.3-2.1-4.3-5.2
				c0-3.4,2.1-5.5,4.6-5.5c1.6,0,2.6,0.7,3.1,1.6h0v-6.1H1053.5z M1051.7,574c0-0.2,0-0.5-0.1-0.8c-0.3-1.2-1.3-2.1-2.7-2.1
				c-1.9,0-3,1.7-3,3.9c0,2.1,1,3.8,3,3.8c1.2,0,2.4-0.8,2.7-2.2c0.1-0.3,0.1-0.5,0.1-0.8V574z"/>
		</g>
	</g>
</g>
<g id="Layer_5" class="st0">
</g>
<g id="Layer_6">
	<g class="st10">
		<g>
			<line class="st11" x1="812" y1="734" x2="812" y2="739"/>
			<line class="st12" x1="812" y1="758.9" x2="812" y2="1586"/>
			<line class="st11" x1="812" y1="1596" x2="812" y2="1601"/>
		</g>
	</g>
	<g class="st10">
		<g>
			<line class="st11" x1="1187" y1="734" x2="1187" y2="739"/>
			<line class="st12" x1="1187" y1="758.9" x2="1187" y2="1586"/>
			<line class="st11" x1="1187" y1="1596" x2="1187" y2="1601"/>
		</g>
	</g>
</g>
</svg>
